<svg width="78" height="77" viewBox="0 0 78 77" fill="none" xmlns="http://www.w3.org/2000/svg">
<g filter="url(#filter0_f_11_90)">
<path d="M67.5052 58.4331C76.8866 51.905 74.7217 25.0675 69.6701 22.1661C69.6701 22.1661 66.4162 33.5013 63.1753 40.2996C59.9343 47.0979 52.3505 55.5317 52.3505 55.5317C52.3505 55.5317 58.1237 64.9612 67.5052 58.4331Z" fill="white" style="fill:white;fill-opacity:1;"/>
<path d="M10.4949 21.5669C1.11341 28.095 3.27836 54.9325 8.3299 57.8339C8.3299 57.8339 11.5838 46.4987 14.8247 39.7004C18.0657 32.9021 25.6495 24.4683 25.6495 24.4683C25.6495 24.4683 19.8763 15.0388 10.4949 21.5669Z" fill="white" style="fill:white;fill-opacity:1;"/>
<path d="M37.9175 4.03264C50.9072 3.30731 64.6185 14.9127 64.6185 14.9127C64.6185 14.9127 62.1072 22.8915 58.1237 31.5955C54.1402 40.2996 47.299 50.4544 47.299 50.4544C47.299 50.4544 38.5801 27.6945 32.866 19.9901C27.1519 12.2856 18.433 11.286 18.433 11.286C18.433 11.286 24.9278 4.75796 37.9175 4.03264Z" fill="#263B6A" style="fill:#263B6A;fill:color(display-p3 0.1490 0.2314 0.4157);fill-opacity:1;"/>
<path d="M40.0825 75.9674C27.0928 76.6927 13.3815 65.0873 13.3815 65.0873C13.3815 65.0873 15.8928 57.1085 19.8763 48.4045C23.8598 39.7004 30.701 29.5456 30.701 29.5456C30.701 29.5456 39.4199 52.3055 45.134 60.0099C50.8481 67.7144 59.567 68.714 59.567 68.714C59.567 68.714 53.0722 75.242 40.0825 75.9674Z" fill="#263B6A" style="fill:#263B6A;fill:color(display-p3 0.1490 0.2314 0.4157);fill-opacity:1;"/>
</g>
<g filter="url(#filter1_i_11_90)">
<path d="M67 57.5529C76.1 51.2207 74 25.1883 69.1 22.374C69.1 22.374 65.9437 33.3691 62.8 39.9635C59.6563 46.5578 52.3 54.7386 52.3 54.7386C52.3 54.7386 57.9 63.8852 67 57.5529Z" fill="white" style="fill:white;fill-opacity:1;"/>
</g>
<g filter="url(#filter2_i_11_90)">
<path d="M11.7 21.7927C2.59999 28.1249 4.7 54.1574 9.59999 56.9717C9.59999 56.9717 12.7563 45.9766 15.9 39.3822C19.0437 32.7878 26.4 24.607 26.4 24.607C26.4 24.607 20.8 15.4605 11.7 21.7927Z" fill="white" style="fill:white;fill-opacity:1;"/>
</g>
<g filter="url(#filter3_i_11_90)">
<path d="M38.3 4.78449C50.9 4.08093 64.2 15.3382 64.2 15.3382C64.2 15.3382 61.764 23.0776 57.9 31.5205C54.036 39.9635 47.4 49.8136 47.4 49.8136C47.4 49.8136 38.9427 27.7365 33.4 20.2632C27.8573 12.7899 19.4 11.8203 19.4 11.8203C19.4 11.8203 25.7 5.48806 38.3 4.78449Z" fill="#263B6A" style="fill:#263B6A;fill:color(display-p3 0.1490 0.2314 0.4157);fill-opacity:1;"/>
<path d="M38.3 4.78449C50.9 4.08093 64.2 15.3382 64.2 15.3382C64.2 15.3382 61.764 23.0776 57.9 31.5205C54.036 39.9635 47.4 49.8136 47.4 49.8136C47.4 49.8136 38.9427 27.7365 33.4 20.2632C27.8573 12.7899 19.4 11.8203 19.4 11.8203C19.4 11.8203 25.7 5.48806 38.3 4.78449Z" stroke="#263B6A" style="stroke:#263B6A;stroke:color(display-p3 0.1490 0.2314 0.4157);stroke-opacity:1;"/>
</g>
<g filter="url(#filter4_i_11_90)">
<path d="M40.4 74.5612C27.8 75.2647 14.5 64.0075 14.5 64.0075C14.5 64.0075 16.936 56.2681 20.8 47.8252C24.664 39.3822 31.3 29.5321 31.3 29.5321C31.3 29.5321 39.7573 51.6091 45.3 59.0824C50.8427 66.5558 59.3 67.5254 59.3 67.5254C59.3 67.5254 53 73.8576 40.4 74.5612Z" fill="#263B6A" style="fill:#263B6A;fill:color(display-p3 0.1490 0.2314 0.4157);fill-opacity:1;"/>
<path d="M40.4 74.5612C27.8 75.2647 14.5 64.0075 14.5 64.0075C14.5 64.0075 16.936 56.2681 20.8 47.8252C24.664 39.3822 31.3 29.5321 31.3 29.5321C31.3 29.5321 39.7573 51.6091 45.3 59.0824C50.8427 66.5558 59.3 67.5254 59.3 67.5254C59.3 67.5254 53 73.8576 40.4 74.5612Z" stroke="#263B6A" style="stroke:#263B6A;stroke:color(display-p3 0.1490 0.2314 0.4157);stroke-opacity:1;"/>
</g>
<defs>
<filter id="filter0_f_11_90" x="0" y="0" width="78" height="80" filterUnits="userSpaceOnUse" color-interpolation-filters="sRGB">
<feFlood flood-opacity="0" result="BackgroundImageFix"/>
<feBlend mode="normal" in="SourceGraphic" in2="BackgroundImageFix" result="shape"/>
<feGaussianBlur stdDeviation="2" result="effect1_foregroundBlur_11_90"/>
</filter>
<filter id="filter1_i_11_90" x="52.3" y="22.374" width="21" height="41.412" filterUnits="userSpaceOnUse" color-interpolation-filters="sRGB">
<feFlood flood-opacity="0" result="BackgroundImageFix"/>
<feBlend mode="normal" in="SourceGraphic" in2="BackgroundImageFix" result="shape"/>
<feColorMatrix in="SourceAlpha" type="matrix" values="0 0 0 0 0 0 0 0 0 0 0 0 0 0 0 0 0 0 127 0" result="hardAlpha"/>
<feOffset dy="4"/>
<feGaussianBlur stdDeviation="2"/>
<feComposite in2="hardAlpha" operator="arithmetic" k2="-1" k3="1"/>
<feColorMatrix type="matrix" values="0 0 0 0 0 0 0 0 0 0 0 0 0 0 0 0 0 0 0.71 0"/>
<feBlend mode="normal" in2="shape" result="effect1_innerShadow_11_90"/>
</filter>
<filter id="filter2_i_11_90" x="5.39999" y="19.5597" width="21" height="41.412" filterUnits="userSpaceOnUse" color-interpolation-filters="sRGB">
<feFlood flood-opacity="0" result="BackgroundImageFix"/>
<feBlend mode="normal" in="SourceGraphic" in2="BackgroundImageFix" result="shape"/>
<feColorMatrix in="SourceAlpha" type="matrix" values="0 0 0 0 0 0 0 0 0 0 0 0 0 0 0 0 0 0 127 0" result="hardAlpha"/>
<feOffset dy="4"/>
<feGaussianBlur stdDeviation="2"/>
<feComposite in2="hardAlpha" operator="arithmetic" k2="-1" k3="1"/>
<feColorMatrix type="matrix" values="0 0 0 0 0 0 0 0 0 0 0 0 0 0 0 0 0 0 0.71 0"/>
<feBlend mode="normal" in2="shape" result="effect1_innerShadow_11_90"/>
</filter>
<filter id="filter3_i_11_90" x="19.4" y="4.75284" width="44.8" height="45.0607" filterUnits="userSpaceOnUse" color-interpolation-filters="sRGB">
<feFlood flood-opacity="0" result="BackgroundImageFix"/>
<feBlend mode="normal" in="SourceGraphic" in2="BackgroundImageFix" result="shape"/>
<feColorMatrix in="SourceAlpha" type="matrix" values="0 0 0 0 0 0 0 0 0 0 0 0 0 0 0 0 0 0 127 0" result="hardAlpha"/>
<feMorphology radius="45" operator="dilate" in="SourceAlpha" result="effect1_innerShadow_11_90"/>
<feOffset dy="4"/>
<feGaussianBlur stdDeviation="2"/>
<feComposite in2="hardAlpha" operator="arithmetic" k2="-1" k3="1"/>
<feColorMatrix type="matrix" values="0 0 0 0 0.276849 0 0 0 0 0.544106 0 0 0 0 0.910348 0 0 0 0.42 0"/>
<feBlend mode="lighten" in2="shape" result="effect1_innerShadow_11_90"/>
</filter>
<filter id="filter4_i_11_90" x="14.5" y="29.5321" width="44.8" height="45.0607" filterUnits="userSpaceOnUse" color-interpolation-filters="sRGB">
<feFlood flood-opacity="0" result="BackgroundImageFix"/>
<feBlend mode="normal" in="SourceGraphic" in2="BackgroundImageFix" result="shape"/>
<feColorMatrix in="SourceAlpha" type="matrix" values="0 0 0 0 0 0 0 0 0 0 0 0 0 0 0 0 0 0 127 0" result="hardAlpha"/>
<feMorphology radius="45" operator="dilate" in="SourceAlpha" result="effect1_innerShadow_11_90"/>
<feOffset dy="4"/>
<feGaussianBlur stdDeviation="2"/>
<feComposite in2="hardAlpha" operator="arithmetic" k2="-1" k3="1"/>
<feColorMatrix type="matrix" values="0 0 0 0 0.276849 0 0 0 0 0.544106 0 0 0 0 0.910348 0 0 0 0.42 0"/>
<feBlend mode="lighten" in2="shape" result="effect1_innerShadow_11_90"/>
</filter>
</defs>
</svg>
